<svg xmlns="http://www.w3.org/2000/svg" width="546" height="716" viewBox="0 0 546 716" version="1.1">
	<path d="M 397.500 72.581 C 393.100 73.351, 385 75.381, 379.500 77.092 C 328.846 92.847, 292.213 133.391, 280.819 186.312 C 277.669 200.943, 277.669 228.057, 280.819 242.688 C 294.994 308.521, 346.914 353.216, 415.250 358.412 L 422 358.925 422 214.962 L 422 71 413.750 71.090 C 409.212 71.139, 401.900 71.810, 397.500 72.581 M 198.746 179.023 C 187.765 181.794, 176.926 191.236, 173.156 201.313 C 170.225 209.146, 170.228 219.862, 173.164 227.709 C 176.100 235.556, 184.067 243.843, 192.288 247.600 C 197.550 250.005, 199.800 250.440, 207 250.448 C 214.097 250.455, 216.437 250.021, 221.175 247.818 C 228.770 244.287, 235.503 237.881, 239.341 230.537 C 242.267 224.937, 242.496 223.775, 242.498 214.500 C 242.500 205.426, 242.229 203.965, 239.574 198.722 C 235.991 191.646, 228.745 184.688, 221.509 181.375 C 215.409 178.583, 204.824 177.489, 198.746 179.023 M 263.500 357.622 C 243.383 360.682, 228.587 365.171, 213.361 372.832 C 178.782 390.232, 153.172 420.470, 141.228 458 C 135.060 477.380, 135 478.416, 135 565.676 L 135 645 278.500 645 L 422 645 422 565.676 C 422 476.812, 422.019 477.111, 414.931 455.680 C 398.615 406.348, 358.691 370.979, 306.782 359.871 C 297.748 357.937, 270.673 356.531, 263.500 357.622" stroke="none" fill="#c37b1e" fill-rule="evenodd"/>
</svg>